<svg width="24" height="24" viewBox="0 0 24 24" fill="none" xmlns="http://www.w3.org/2000/svg">
<circle cx="9.5" cy="9.5" r="9" fill="var(--mw-icon-background-default-white, #FFFFFF)" stroke="var(--mw-icon-border-default-gray, #616161)"/>
<path d="M9.50001 3.35303C10.5109 3.35303 11.5062 3.60233 12.3977 4.07886C13.2892 4.55539 14.0495 5.24444 14.6111 6.08496C15.1727 6.92549 15.5184 7.89155 15.6175 8.89757C15.7166 9.90359 15.566 10.9185 15.1791 11.8525C14.7923 12.7864 14.1811 13.6105 13.3997 14.2518C12.6182 14.8931 11.6907 15.3318 10.6992 15.529C9.70777 15.7262 8.68297 15.6759 7.71561 15.3825C6.74825 15.089 5.86819 14.5615 5.15338 13.8467L9.50001 9.50009V3.35303Z" fill="var(--mw-icon-background-default-selection, #B4DEFF)"/>
<path d="M9.5 3.5L9.5 9.5L5 14" stroke="var(--mw-icon-glyph-content-gray, #616162)" stroke-linecap="round" stroke-linejoin="round"/>
<path d="M20.5 15.5L17.5 12.5L19.5 10.5L22.5 13.5L20.5 15.5Z" fill="var(--mw-icon-background-red, #FF9D9A)" stroke="var(--mw-icon-border-default-red, #902622)" stroke-linejoin="round"/>
<path d="M20.5 15.5L12.5 23.5H9.5V20.5L17.5 12.5L20.5 15.5Z" fill="var(--mw-icon-background-default-highlight, #FFE864)" stroke="#674C06" stroke-linejoin="round"/>
<use href="#edit_time"/></svg>
