<svg width="24" height="24" viewBox="0 0 24 24" fill="none" xmlns="http://www.w3.org/2000/svg">
<path d="M0.5 2.5C0.5 1.39543 1.39543 0.5 2.5 0.5H20.5C21.6046 0.5 22.5 1.39543 22.5 2.5V20.5C22.5 21.6046 21.6046 22.5 20.5 22.5H2.5C1.39543 22.5 0.5 21.6046 0.5 20.5V2.5Z" fill="var(--mw-icon-background-default-white, #FFFFFF)"/>
<path d="M1 5.5H14.5" stroke="#0072BD" stroke-linecap="round"/>
<path d="M14.5 17.5H22" stroke="#0072BD" stroke-linecap="round"/>
<path d="M2.5 15.5H5.5" stroke="var(--mw-icon-glyph-content-dark-gray, #333333)" stroke-linecap="round"/>
<path d="M14.5 22.5V21.5" stroke="var(--mw-icon-glyph-disabled-gray, #888889)" stroke-linecap="round"/>
<path d="M14.5 19.5V17.5" stroke="var(--mw-icon-glyph-disabled-gray, #888889)" stroke-linecap="round"/>
<path d="M14.5 15.5V13.5" stroke="var(--mw-icon-glyph-disabled-gray, #888889)" stroke-linecap="round"/>
<path d="M14.5 11.5V9.5" stroke="var(--mw-icon-glyph-disabled-gray, #888889)" stroke-linecap="round"/>
<path d="M14.5 7.5V5.5" stroke="var(--mw-icon-glyph-disabled-gray, #888889)" stroke-linecap="round"/>
<path d="M14.5 3.5V1.5" stroke="var(--mw-icon-glyph-disabled-gray, #888889)" stroke-linecap="round"/>
<path d="M19.5 11.5H21.5" stroke="var(--mw-icon-glyph-disabled-gray, #888889)" stroke-linecap="round"/>
<path d="M15.5 11.5H17.5" stroke="var(--mw-icon-glyph-disabled-gray, #888889)" stroke-linecap="round"/>
<path d="M0.5 11.5H1.5" stroke="var(--mw-icon-glyph-disabled-gray, #888889)" stroke-linecap="round"/>
<path d="M7.5 11.5H9.5" stroke="var(--mw-icon-glyph-disabled-gray, #888889)" stroke-linecap="round"/>
<path d="M3.5 11.5H5.5" stroke="var(--mw-icon-glyph-disabled-gray, #888889)" stroke-linecap="round"/>
<path d="M11.5 11.5H12.5" stroke="var(--mw-icon-glyph-disabled-gray, #888889)" stroke-linecap="round"/>
<circle cx="18.5" cy="2.5" r="0.5" fill="var(--mw-icon-glyph-content-dark-gray, #333333)"/>
<path d="M17.5 8C17.2239 8 17 8.22386 17 8.5C17 8.77614 17.2239 9 17.5 9V8ZM18 4V7.75H19V4H18ZM17.75 8H17.5V9H17.75V8ZM18 7.75C18 7.88807 17.8881 8 17.75 8V9C18.4404 9 19 8.44036 19 7.75H18Z" fill="var(--mw-icon-glyph-content-dark-gray, #333333)"/>
<path d="M7.5 19C7.22386 19 7 19.2239 7 19.5C7 19.7761 7.22386 20 7.5 20V19ZM8 15V18.75H9V15H8ZM7.75 19H7.5V20H7.75V19ZM8 18.75C8 18.8881 7.88807 19 7.75 19V20C8.44036 20 9 19.4404 9 18.75H8Z" fill="var(--mw-icon-glyph-content-dark-gray, #333333)"/>
<circle cx="8.5" cy="13.5" r="0.5" fill="var(--mw-icon-glyph-content-dark-gray, #333333)"/>
<path d="M0.5 2.5C0.5 1.39543 1.39543 0.5 2.5 0.5H20.5C21.6046 0.5 22.5 1.39543 22.5 2.5V20.5C22.5 21.6046 21.6046 22.5 20.5 22.5H2.5C1.39543 22.5 0.5 21.6046 0.5 20.5V2.5Z" stroke="var(--mw-icon-border-default-gray, #616161)" stroke-linejoin="round"/>
<use href="#hilbertFilter"/></svg>
