<svg width="20" height="16" viewBox="0 0 20 16" fill="none" xmlns="http://www.w3.org/2000/svg">
<rect x="0.5" y="0.5" width="18" height="14" fill="var(--mw-icon-background-default-white, #FFFFFF)"/>
<rect x="0.5" y="0.5" width="18" height="14" stroke="var(--mw-icon-border-default-gray, #616161)" stroke-linejoin="round"/>
<path d="M4 7.51489C4 10.2763 6.23858 12.5149 9 12.5149C11.7614 12.5149 14 10.2763 14 7.51489C14 4.75347 11.7614 2.51489 9 2.51489C6.23858 2.51489 4 4.75347 4 7.51489Z" fill="#453304"/>
<path d="M5.49514 4.09517C3.72473 5.98827 3.81801 8.95235 5.70348 10.7156C7.58896 12.4789 10.5526 12.3737 12.323 10.4805C14.0935 8.58744 14.0002 5.62336 12.1147 3.86009C10.2292 2.09681 7.26555 2.20206 5.49514 4.09517Z" fill="#674C06"/>
<path d="M5.49515 4.09509C3.72474 5.9882 3.7448 8.88381 5.53996 10.5626C7.33512 12.2414 10.2256 12.0677 11.996 10.1746C13.7664 8.28151 13.7463 5.3859 11.9512 3.70708C10.156 2.02827 7.26556 2.20199 5.49515 4.09509Z" fill="#745A26"/>
<path d="M5.49514 4.0951C3.72473 5.9882 3.67108 8.81487 5.3753 10.4086C7.07952 12.0024 9.89627 11.7597 11.6667 9.86664C13.4371 7.97354 13.4907 5.14687 11.7865 3.5531C10.0823 1.95933 7.26555 2.20199 5.49514 4.0951Z" fill="#8B6606"/>
<path d="M5.47375 4.11788C3.75941 5.95104 3.67723 8.65993 5.29021 10.1684C6.90319 11.6768 9.60052 11.4136 11.3149 9.58043C13.0292 7.74727 13.1114 5.03838 11.4984 3.52994C9.88542 2.0215 7.18809 2.28473 5.47375 4.11788Z" fill="#B3882A"/>
<path d="M5.45987 4.1711C3.89207 5.84756 3.83556 8.34232 5.33364 9.74331C6.83173 11.1443 9.31712 10.921 10.8849 9.24454C12.4527 7.56809 12.5092 5.07333 11.0111 3.67234C9.51306 2.27135 7.02767 2.49465 5.45987 4.1711Z" fill="#EDB120"/>
<path d="M5.46545 4.15304C3.99602 5.72431 3.91565 8.03692 5.28595 9.3184C6.65624 10.5999 8.95829 10.365 10.4277 8.7937C11.8971 7.22243 11.9775 4.90983 10.6072 3.62834C9.23693 2.34686 6.93488 2.58178 5.46545 4.15304Z" fill="#FFD60A"/>
<path d="M5.46134 4.13362C4.18005 5.50371 4.0831 7.4951 5.2448 8.58151C6.40651 9.66793 8.38695 9.43796 9.66825 8.06786C10.9495 6.69777 11.0465 4.70637 9.88479 3.61996C8.72308 2.53355 6.74264 2.76352 5.46134 4.13362Z" fill="var(--mw-icon-background-default-highlight, #FFE864)"/>
<path d="M5.51487 4.06457C4.35833 5.30125 4.21008 7.04193 5.18373 7.95248C6.15738 8.86303 7.88424 8.59864 9.04077 7.36195C10.1973 6.12526 10.3456 4.38458 9.37192 3.47404C8.39826 2.56349 6.67141 2.82788 5.51487 4.06457Z" fill="var(--mw-icon-background-medium-yellow, #FFEF91)"/>
<path d="M5.55295 4.10067C4.53886 5.18504 4.36531 6.67059 5.16531 7.41874C5.96531 8.16689 7.43592 7.89434 8.45001 6.80997C9.4641 5.7256 9.63765 4.24005 8.83765 3.49189C8.03765 2.74374 6.56704 3.0163 5.55295 4.10067Z" fill="#F9FB15"/>
<use href="#cardioidAntennaWide"/></svg>
