<svg width="16" height="16" viewBox="0 0 16 16" fill="none" xmlns="http://www.w3.org/2000/svg">
<circle cx="8" cy="8" r="8" fill="#24A0DD"/>
<path fill-rule="evenodd" clip-rule="evenodd" d="M3.62155 7.91547C5.95371 6.89938 7.50885 6.22952 8.28697 5.90587C10.5087 4.9818 10.9703 4.82128 11.2712 4.81597C11.3374 4.81481 11.4853 4.83121 11.5812 4.90899C11.6621 4.97466 11.6844 5.06337 11.6951 5.12564C11.7057 5.1879 11.719 5.32974 11.7084 5.44057C11.588 6.70556 11.0671 9.77535 10.8021 11.1922C10.6899 11.7917 10.4691 11.9927 10.2553 12.0123C9.79077 12.0551 9.43799 11.7053 8.98803 11.4104C8.28392 10.9488 7.88615 10.6615 7.20269 10.2111C6.41284 9.69062 6.92487 9.40454 7.375 8.93701C7.49281 8.81466 9.53973 6.95282 9.57935 6.78392C9.58431 6.7628 9.5889 6.68406 9.54213 6.64248C9.49535 6.60091 9.42631 6.61513 9.37649 6.62643C9.30587 6.64246 8.18106 7.38592 6.00204 8.85682C5.68277 9.07606 5.39358 9.18288 5.13448 9.17728C4.84884 9.17111 4.29938 9.01577 3.89091 8.883C3.38991 8.72014 2.99172 8.63404 3.0264 8.35746C3.04446 8.2134 3.24284 8.06607 3.62155 7.91547Z" fill="white"/>
</svg>
