<svg width="16" height="16" viewBox="0 0 16 16" fill="none" xmlns="http://www.w3.org/2000/svg">
<path d="M0.5 5.5H14.5V14C14.5 14.2761 14.2761 14.5 14 14.5H1C0.723857 14.5 0.5 14.2761 0.5 14V5.5Z" fill="var(--mw-icon-background-default-white, #FFFFFF)" stroke="var(--mw-icon-border-default-gray, #616161)"/>
<path d="M2.5 7.5L4 9L2.5 10.5M5.5 7.5L7 9L5.5 10.5" stroke="var(--mw-icon-glyph-content-gray, #616162)" stroke-linecap="round" stroke-linejoin="round"/>
<path d="M14 1.5H1C0.723858 1.5 0.5 1.72386 0.5 2V5.5H14.5V2C14.5 1.72386 14.2761 1.5 14 1.5Z" fill="var(--mw-icon-background-default-action, #CBFFBE)" stroke="var(--mw-icon-border-default-green, #008013)"/>
<path d="M4 3.5H11M14.5 5.5V2C14.5 1.72386 14.2761 1.5 14 1.5H1C0.723858 1.5 0.5 1.72386 0.5 2V5.5H14.5Z" stroke="var(--mw-icon-border-default-green, #008013)"/>
<use href="#enumClass"/></svg>
